<?xml version="1.0" encoding="UTF-8" standalone="no"?>
<!-- Created with Inkscape (http://www.inkscape.org/) -->
<svg
   xmlns:dc="http://purl.org/dc/elements/1.1/"
   xmlns:cc="http://web.resource.org/cc/"
   xmlns:rdf="http://www.w3.org/1999/02/22-rdf-syntax-ns#"
   xmlns:svg="http://www.w3.org/2000/svg"
   xmlns="http://www.w3.org/2000/svg"
   xmlns:xlink="http://www.w3.org/1999/xlink"
   xmlns:sodipodi="http://sodipodi.sourceforge.net/DTD/sodipodi-0.dtd"
   xmlns:inkscape="http://www.inkscape.org/namespaces/inkscape"
   width="330.55832"
   height="226.88493"
   id="svg2"
   sodipodi:version="0.32"
   inkscape:version="0.45.1"
   sodipodi:docbase="/Users/johnolsen/Pictures/svg"
   sodipodi:docname="biswajyotim_Fan.svg"
   inkscape:output_extension="org.inkscape.output.svg.inkscape"
   version="1.0">
  <defs
     id="defs4">
    <linearGradient
       inkscape:collect="always"
       id="linearGradient2917">
      <stop
         style="stop-color:#ebee20;stop-opacity:1;"
         offset="0"
         id="stop2919" />
      <stop
         style="stop-color:#ebee20;stop-opacity:0;"
         offset="1"
         id="stop2921" />
    </linearGradient>
    <linearGradient
       inkscape:collect="always"
       id="linearGradient2907">
      <stop
         style="stop-color:#6f4242;stop-opacity:1;"
         offset="0"
         id="stop2909" />
      <stop
         style="stop-color:#6f4242;stop-opacity:0;"
         offset="1"
         id="stop2911" />
    </linearGradient>
    <linearGradient
       inkscape:collect="always"
       id="linearGradient2897">
      <stop
         style="stop-color:#551e1e;stop-opacity:1;"
         offset="0"
         id="stop2899" />
      <stop
         style="stop-color:#551e1e;stop-opacity:0;"
         offset="1"
         id="stop2901" />
    </linearGradient>
    <linearGradient
       inkscape:collect="always"
       id="linearGradient2887">
      <stop
         style="stop-color:#a15d31;stop-opacity:1;"
         offset="0"
         id="stop2889" />
      <stop
         style="stop-color:#a15d31;stop-opacity:0;"
         offset="1"
         id="stop2891" />
    </linearGradient>
    <linearGradient
       inkscape:collect="always"
       id="linearGradient2877">
      <stop
         style="stop-color:#a7561f;stop-opacity:1;"
         offset="0"
         id="stop2879" />
      <stop
         style="stop-color:#a7561f;stop-opacity:0;"
         offset="1"
         id="stop2881" />
    </linearGradient>
    <linearGradient
       inkscape:collect="always"
       id="linearGradient2811">
      <stop
         style="stop-color:black;stop-opacity:1;"
         offset="0"
         id="stop2813" />
      <stop
         style="stop-color:black;stop-opacity:0;"
         offset="1"
         id="stop2815" />
    </linearGradient>
    <linearGradient
       inkscape:collect="always"
       xlink:href="#linearGradient2811"
       id="linearGradient2817"
       x1="106.38795"
       y1="260.39767"
       x2="105.58316"
       y2="258.68423"
       gradientUnits="userSpaceOnUse" />
    <linearGradient
       inkscape:collect="always"
       xlink:href="#linearGradient2811"
       id="linearGradient2839"
       gradientUnits="userSpaceOnUse"
       x1="106.38795"
       y1="260.39767"
       x2="105.58316"
       y2="258.68423" />
    <linearGradient
       inkscape:collect="always"
       xlink:href="#linearGradient2811"
       id="linearGradient2843"
       gradientUnits="userSpaceOnUse"
       x1="106.38795"
       y1="260.39767"
       x2="105.58316"
       y2="258.68423" />
    <linearGradient
       inkscape:collect="always"
       xlink:href="#linearGradient2811"
       id="linearGradient2847"
       gradientUnits="userSpaceOnUse"
       x1="106.38795"
       y1="260.39767"
       x2="105.58316"
       y2="258.68423" />
    <linearGradient
       inkscape:collect="always"
       xlink:href="#linearGradient2811"
       id="linearGradient2853"
       gradientUnits="userSpaceOnUse"
       x1="106.38795"
       y1="260.39767"
       x2="105.58316"
       y2="258.68423" />
    <linearGradient
       inkscape:collect="always"
       xlink:href="#linearGradient2811"
       id="linearGradient2855"
       gradientUnits="userSpaceOnUse"
       x1="106.38795"
       y1="260.39767"
       x2="105.58316"
       y2="258.68423" />
    <linearGradient
       inkscape:collect="always"
       xlink:href="#linearGradient2811"
       id="linearGradient2859"
       gradientUnits="userSpaceOnUse"
       x1="106.38795"
       y1="260.39767"
       x2="105.58316"
       y2="258.68423" />
    <linearGradient
       inkscape:collect="always"
       xlink:href="#linearGradient2811"
       id="linearGradient2863"
       gradientUnits="userSpaceOnUse"
       x1="106.38795"
       y1="260.39767"
       x2="105.58316"
       y2="258.68423" />
    <linearGradient
       inkscape:collect="always"
       xlink:href="#linearGradient2811"
       id="linearGradient2867"
       gradientUnits="userSpaceOnUse"
       x1="106.38795"
       y1="260.39767"
       x2="105.58316"
       y2="258.68423" />
    <linearGradient
       inkscape:collect="always"
       xlink:href="#linearGradient2877"
       id="linearGradient2883"
       x1="198.35703"
       y1="207.88962"
       x2="219.22429"
       y2="205.0836"
       gradientUnits="userSpaceOnUse" />
    <linearGradient
       inkscape:collect="always"
       xlink:href="#linearGradient2887"
       id="linearGradient2893"
       x1="195.24786"
       y1="101.03526"
       x2="214.01424"
       y2="94.862007"
       gradientUnits="userSpaceOnUse" />
    <linearGradient
       inkscape:collect="always"
       xlink:href="#linearGradient2897"
       id="linearGradient2903"
       x1="207.04062"
       y1="155.03143"
       x2="216.32495"
       y2="155.03142"
       gradientUnits="userSpaceOnUse" />
    <linearGradient
       inkscape:collect="always"
       xlink:href="#linearGradient2907"
       id="linearGradient2913"
       x1="183.27296"
       y1="241.58064"
       x2="226.43056"
       y2="223.06087"
       gradientUnits="userSpaceOnUse" />
    <radialGradient
       inkscape:collect="always"
       xlink:href="#linearGradient2917"
       id="radialGradient2923"
       cx="215.42458"
       cy="259.94812"
       fx="215.42458"
       fy="259.94812"
       r="19.922783"
       gradientTransform="matrix(1.531165,-0.441032,0.198851,0.69037,-165.1969,172.4026)"
       gradientUnits="userSpaceOnUse" />
    <radialGradient
       inkscape:collect="always"
       xlink:href="#linearGradient2917"
       id="radialGradient2927"
       gradientUnits="userSpaceOnUse"
       gradientTransform="matrix(1.033526,-0.351425,0.183893,0.540825,-54.10509,191.973)"
       cx="215.42458"
       cy="259.94812"
       fx="215.42458"
       fy="259.94812"
       r="19.922783" />
    <linearGradient
       inkscape:collect="always"
       xlink:href="#linearGradient2897"
       id="linearGradient2960"
       gradientUnits="userSpaceOnUse"
       x1="207.04062"
       y1="155.03143"
       x2="216.32495"
       y2="155.03142" />
    <linearGradient
       inkscape:collect="always"
       xlink:href="#linearGradient2877"
       id="linearGradient2962"
       gradientUnits="userSpaceOnUse"
       x1="198.35703"
       y1="207.88962"
       x2="219.22429"
       y2="205.0836" />
    <linearGradient
       inkscape:collect="always"
       xlink:href="#linearGradient2907"
       id="linearGradient2964"
       gradientUnits="userSpaceOnUse"
       x1="183.27296"
       y1="241.58064"
       x2="226.43056"
       y2="223.06087" />
    <linearGradient
       inkscape:collect="always"
       xlink:href="#linearGradient2811"
       id="linearGradient2966"
       gradientUnits="userSpaceOnUse"
       x1="106.38795"
       y1="260.39767"
       x2="105.58316"
       y2="258.68423" />
    <linearGradient
       inkscape:collect="always"
       xlink:href="#linearGradient2811"
       id="linearGradient2968"
       gradientUnits="userSpaceOnUse"
       x1="106.38795"
       y1="260.39767"
       x2="105.58316"
       y2="258.68423" />
    <linearGradient
       inkscape:collect="always"
       xlink:href="#linearGradient2811"
       id="linearGradient2970"
       gradientUnits="userSpaceOnUse"
       x1="106.38795"
       y1="260.39767"
       x2="105.58316"
       y2="258.68423" />
    <linearGradient
       inkscape:collect="always"
       xlink:href="#linearGradient2811"
       id="linearGradient2972"
       gradientUnits="userSpaceOnUse"
       x1="106.38795"
       y1="260.39767"
       x2="105.58316"
       y2="258.68423" />
    <linearGradient
       inkscape:collect="always"
       xlink:href="#linearGradient2811"
       id="linearGradient2974"
       gradientUnits="userSpaceOnUse"
       x1="106.38795"
       y1="260.39767"
       x2="105.58316"
       y2="258.68423" />
    <linearGradient
       inkscape:collect="always"
       xlink:href="#linearGradient2811"
       id="linearGradient2976"
       gradientUnits="userSpaceOnUse"
       x1="106.38795"
       y1="260.39767"
       x2="105.58316"
       y2="258.68423" />
    <linearGradient
       inkscape:collect="always"
       xlink:href="#linearGradient2811"
       id="linearGradient2978"
       gradientUnits="userSpaceOnUse"
       x1="106.38795"
       y1="260.39767"
       x2="105.58316"
       y2="258.68423" />
    <linearGradient
       inkscape:collect="always"
       xlink:href="#linearGradient2811"
       id="linearGradient2980"
       gradientUnits="userSpaceOnUse"
       x1="106.38795"
       y1="260.39767"
       x2="105.58316"
       y2="258.68423" />
    <linearGradient
       inkscape:collect="always"
       xlink:href="#linearGradient2811"
       id="linearGradient2982"
       gradientUnits="userSpaceOnUse"
       x1="106.38795"
       y1="260.39767"
       x2="105.58316"
       y2="258.68423" />
    <linearGradient
       inkscape:collect="always"
       xlink:href="#linearGradient2887"
       id="linearGradient2984"
       gradientUnits="userSpaceOnUse"
       x1="195.24786"
       y1="101.03526"
       x2="214.01424"
       y2="94.862007" />
    <radialGradient
       inkscape:collect="always"
       xlink:href="#linearGradient2917"
       id="radialGradient2986"
       gradientUnits="userSpaceOnUse"
       gradientTransform="matrix(1.531165,-0.441032,0.198851,0.69037,-165.1969,172.4026)"
       cx="215.42458"
       cy="259.94812"
       fx="215.42458"
       fy="259.94812"
       r="19.922783" />
    <radialGradient
       inkscape:collect="always"
       xlink:href="#linearGradient2917"
       id="radialGradient2988"
       gradientUnits="userSpaceOnUse"
       gradientTransform="matrix(1.033526,-0.351425,0.183893,0.540825,-54.10509,191.973)"
       cx="215.42458"
       cy="259.94812"
       fx="215.42458"
       fy="259.94812"
       r="19.922783" />
    <linearGradient
       inkscape:collect="always"
       xlink:href="#linearGradient2887"
       id="linearGradient2993"
       gradientUnits="userSpaceOnUse"
       x1="195.24786"
       y1="101.03526"
       x2="214.01424"
       y2="94.862007"
       gradientTransform="translate(128.5736,-8.730303)" />
    <linearGradient
       inkscape:collect="always"
       xlink:href="#linearGradient2907"
       id="linearGradient3010"
       gradientUnits="userSpaceOnUse"
       x1="183.27296"
       y1="241.58064"
       x2="226.43056"
       y2="223.06087"
       gradientTransform="translate(128.5736,-8.730303)" />
    <linearGradient
       inkscape:collect="always"
       xlink:href="#linearGradient2877"
       id="linearGradient3014"
       gradientUnits="userSpaceOnUse"
       x1="198.35703"
       y1="207.88962"
       x2="219.22429"
       y2="205.0836"
       gradientTransform="translate(128.5736,-8.730303)" />
    <linearGradient
       inkscape:collect="always"
       xlink:href="#linearGradient2897"
       id="linearGradient3019"
       gradientUnits="userSpaceOnUse"
       x1="207.04062"
       y1="155.03143"
       x2="216.32495"
       y2="155.03142"
       gradientTransform="translate(128.5736,-8.730303)" />
    <linearGradient
       inkscape:collect="always"
       xlink:href="#linearGradient2811"
       id="linearGradient3027"
       gradientUnits="userSpaceOnUse"
       x1="106.38795"
       y1="260.39767"
       x2="105.58316"
       y2="258.68423" />
    <linearGradient
       inkscape:collect="always"
       xlink:href="#linearGradient2811"
       id="linearGradient3029"
       gradientUnits="userSpaceOnUse"
       x1="106.38795"
       y1="260.39767"
       x2="105.58316"
       y2="258.68423" />
    <linearGradient
       inkscape:collect="always"
       xlink:href="#linearGradient2811"
       id="linearGradient3031"
       gradientUnits="userSpaceOnUse"
       x1="106.38795"
       y1="260.39767"
       x2="105.58316"
       y2="258.68423" />
    <linearGradient
       inkscape:collect="always"
       xlink:href="#linearGradient2811"
       id="linearGradient3033"
       gradientUnits="userSpaceOnUse"
       x1="106.38795"
       y1="260.39767"
       x2="105.58316"
       y2="258.68423" />
    <linearGradient
       inkscape:collect="always"
       xlink:href="#linearGradient2811"
       id="linearGradient3035"
       gradientUnits="userSpaceOnUse"
       x1="106.38795"
       y1="260.39767"
       x2="105.58316"
       y2="258.68423" />
    <linearGradient
       inkscape:collect="always"
       xlink:href="#linearGradient2811"
       id="linearGradient3037"
       gradientUnits="userSpaceOnUse"
       x1="106.38795"
       y1="260.39767"
       x2="105.58316"
       y2="258.68423" />
    <linearGradient
       inkscape:collect="always"
       xlink:href="#linearGradient2897"
       id="linearGradient3070"
       gradientUnits="userSpaceOnUse"
       gradientTransform="translate(128.5736,-8.730303)"
       x1="207.04062"
       y1="155.03143"
       x2="216.32495"
       y2="155.03142" />
    <linearGradient
       inkscape:collect="always"
       xlink:href="#linearGradient2877"
       id="linearGradient3072"
       gradientUnits="userSpaceOnUse"
       gradientTransform="translate(128.5736,-8.730303)"
       x1="198.35703"
       y1="207.88962"
       x2="219.22429"
       y2="205.0836" />
    <linearGradient
       inkscape:collect="always"
       xlink:href="#linearGradient2907"
       id="linearGradient3074"
       gradientUnits="userSpaceOnUse"
       gradientTransform="translate(128.5736,-8.730303)"
       x1="183.27296"
       y1="241.58064"
       x2="226.43056"
       y2="223.06087" />
    <linearGradient
       inkscape:collect="always"
       xlink:href="#linearGradient2811"
       id="linearGradient3076"
       gradientUnits="userSpaceOnUse"
       x1="106.38795"
       y1="260.39767"
       x2="105.58316"
       y2="258.68423" />
    <linearGradient
       inkscape:collect="always"
       xlink:href="#linearGradient2811"
       id="linearGradient3078"
       gradientUnits="userSpaceOnUse"
       x1="106.38795"
       y1="260.39767"
       x2="105.58316"
       y2="258.68423" />
    <linearGradient
       inkscape:collect="always"
       xlink:href="#linearGradient2811"
       id="linearGradient3080"
       gradientUnits="userSpaceOnUse"
       x1="106.38795"
       y1="260.39767"
       x2="105.58316"
       y2="258.68423" />
    <linearGradient
       inkscape:collect="always"
       xlink:href="#linearGradient2811"
       id="linearGradient3082"
       gradientUnits="userSpaceOnUse"
       x1="106.38795"
       y1="260.39767"
       x2="105.58316"
       y2="258.68423" />
    <linearGradient
       inkscape:collect="always"
       xlink:href="#linearGradient2811"
       id="linearGradient3084"
       gradientUnits="userSpaceOnUse"
       x1="106.38795"
       y1="260.39767"
       x2="105.58316"
       y2="258.68423" />
    <linearGradient
       inkscape:collect="always"
       xlink:href="#linearGradient2811"
       id="linearGradient3086"
       gradientUnits="userSpaceOnUse"
       x1="106.38795"
       y1="260.39767"
       x2="105.58316"
       y2="258.68423" />
    <linearGradient
       inkscape:collect="always"
       xlink:href="#linearGradient2811"
       id="linearGradient3088"
       gradientUnits="userSpaceOnUse"
       x1="106.38795"
       y1="260.39767"
       x2="105.58316"
       y2="258.68423" />
    <linearGradient
       inkscape:collect="always"
       xlink:href="#linearGradient2811"
       id="linearGradient3090"
       gradientUnits="userSpaceOnUse"
       x1="106.38795"
       y1="260.39767"
       x2="105.58316"
       y2="258.68423" />
    <linearGradient
       inkscape:collect="always"
       xlink:href="#linearGradient2811"
       id="linearGradient3092"
       gradientUnits="userSpaceOnUse"
       x1="106.38795"
       y1="260.39767"
       x2="105.58316"
       y2="258.68423" />
    <linearGradient
       inkscape:collect="always"
       xlink:href="#linearGradient2887"
       id="linearGradient3094"
       gradientUnits="userSpaceOnUse"
       gradientTransform="translate(128.5736,-8.730303)"
       x1="195.24786"
       y1="101.03526"
       x2="214.01424"
       y2="94.862007" />
    <radialGradient
       inkscape:collect="always"
       xlink:href="#linearGradient2917"
       id="radialGradient3096"
       gradientUnits="userSpaceOnUse"
       gradientTransform="matrix(1.531165,-0.441032,0.198851,0.69037,-165.1969,172.4026)"
       cx="215.42458"
       cy="259.94812"
       fx="215.42458"
       fy="259.94812"
       r="19.922783" />
    <radialGradient
       inkscape:collect="always"
       xlink:href="#linearGradient2917"
       id="radialGradient3098"
       gradientUnits="userSpaceOnUse"
       gradientTransform="matrix(1.033526,-0.351425,0.183893,0.540825,-54.10509,191.973)"
       cx="215.42458"
       cy="259.94812"
       fx="215.42458"
       fy="259.94812"
       r="19.922783" />
  </defs>
  <sodipodi:namedview
     id="base"
     pagecolor="#ffffff"
     bordercolor="#666666"
     borderopacity="1.0"
     gridtolerance="10000"
     guidetolerance="10"
     objecttolerance="10"
     inkscape:pageopacity="0.0"
     inkscape:pageshadow="2"
     inkscape:zoom="3.3497156"
     inkscape:cx="165.27916"
     inkscape:cy="113.44247"
     inkscape:document-units="px"
     inkscape:current-layer="layer1"
     inkscape:window-width="1329"
     inkscape:window-height="947"
     inkscape:window-x="0"
     inkscape:window-y="22" />
  <metadata
     id="metadata7">
    <rdf:RDF>
      <cc:Work
         rdf:about="">
        <dc:format>image/svg+xml</dc:format>
        <dc:type
           rdf:resource="http://purl.org/dc/dcmitype/StillImage" />
      </cc:Work>
    </rdf:RDF>
  </metadata>
  <g
     inkscape:label="Layer 1"
     inkscape:groupmode="layer"
     id="layer1"
     transform="translate(-187.65773,-69.438707)">
    <g
       id="g3039"
       transform="matrix(0.966974,0,0,0.884835,6.197726,7.999221)">
      <path
         style="fill:#aa4400;fill-rule:evenodd;stroke:#000000;stroke-width:0.66086769px;stroke-linecap:butt;stroke-linejoin:miter;stroke-opacity:1"
         d="M 332.99939,267.03522 C 332.99939,267.03522 337.76343,299.0815 338.95333,310.40351 C 340.14532,321.7454 352.34693,325.09489 363.44801,323.05526 C 374.45426,322.22732 380.76261,316.9206 381.54143,307.13417 C 380.1539,294.8852 370.5597,262.29378 370.5597,262.29378 C 370.5597,262.29378 352.07035,258.80942 347.39794,260.14872 C 342.72554,261.48802 332.99939,267.03522 332.99939,267.03522 z "
         id="path2873"
         sodipodi:nodetypes="czcccsc" />
      <path
         style="fill:#aa4400;fill-rule:evenodd;stroke:#000000;stroke-width:1px;stroke-linecap:butt;stroke-linejoin:miter;stroke-opacity:1"
         d="M 393.14069,198.05558 C 393.14069,198.05558 464.69696,161.37834 487.39923,148.41728 C 510.76984,135.07465 544.09485,149.32419 521.51712,167.39002 C 488.16258,194.07906 413.58335,224.5478 413.58335,224.5478 C 413.58335,224.5478 391.81675,222.82223 392.17934,217.26344 C 392.54193,211.70465 393.14069,198.05558 393.14069,198.05558 z "
         id="path2871"
         sodipodi:nodetypes="czscsc" />
      <path
         sodipodi:nodetypes="czssscsc"
         id="path2869"
         d="M 307.8215,207.81626 C 307.8215,207.81626 229.98215,172.06149 225.56984,170.54326 C 220.99175,168.96797 213.18951,165.6829 208.30212,165.17005 C 197.03319,163.98756 178.68438,176.51516 194.3596,188.1769 C 205.35514,196.35715 222.49656,202.44413 238.24708,209.46197 C 265.48231,221.59696 291.00339,232.45035 291.00339,232.45035 C 291.00339,232.45035 310.84,226.40185 310.35643,221.55577 C 309.87287,216.70969 307.8215,207.81626 307.8215,207.81626 z "
         style="fill:#aa4400;fill-rule:evenodd;stroke:#000000;stroke-width:0.8752678px;stroke-linecap:butt;stroke-linejoin:miter;stroke-opacity:1" />
      <path
         sodipodi:nodetypes="czcccsc"
         id="path1892"
         d="M 334.78031,268.32285 C 334.78031,268.32285 339.54435,300.90341 339.6657,312.22542 C 339.77155,322.10048 352.34693,327.09489 363.44801,325.05526 C 374.45426,324.22732 380.76261,318.9206 381.54143,309.13417 C 380.1539,296.8852 370.5597,264.29378 370.5597,264.29378 C 370.5597,264.29378 352.07035,260.80942 347.39794,262.14872 C 342.72554,263.48802 334.78031,268.32285 334.78031,268.32285 z "
         style="fill:#aa4400;fill-rule:evenodd;stroke:#000000;stroke-width:0.66086769px;stroke-linecap:butt;stroke-linejoin:miter;stroke-opacity:1" />
      <path
         sodipodi:nodetypes="ccsssssssssccc"
         id="path1894"
         d="M 348.43235,258.46815 L 350.76298,266.46925 C 350.76298,266.46925 339.12604,268.02125 340.83126,270.94751 C 341.42507,271.96652 342.62506,272.30426 343.40663,272.49891 C 346.13179,273.17762 347.7895,271.58031 350.11603,272.41389 C 352.6938,273.33747 351.49464,274.77296 352.64662,276.22513 C 353.27143,277.01276 355.46199,278.24843 356.43084,278.0403 C 360.56966,277.15118 358.90463,274.34287 359.65908,273.87023 C 361.38298,272.79026 366.60275,272.67764 368.96779,271.86241 C 370.51398,271.32944 369.72216,269.66113 367.82026,268.89598 C 366.17644,268.23466 365.07707,267.88217 363.76403,267.71125 C 360.79871,267.32524 357.82928,266.71706 357.82928,266.71706 L 355.60719,259.24761 L 348.43235,258.46815 z "
         style="fill:#ff6600;fill-rule:evenodd;stroke:#000000;stroke-width:0.66086769px;stroke-linecap:butt;stroke-linejoin:miter;stroke-opacity:1" />
      <path
         sodipodi:nodetypes="ccccc"
         id="path1878"
         d="M 349.54072,104.05741 L 335.61422,105.91428 L 335.61422,188.54484 L 354.18288,188.54484 L 349.54072,104.05741 z "
         style="fill:#800000;fill-rule:evenodd;stroke:#000000;stroke-width:1px;stroke-linecap:butt;stroke-linejoin:miter;stroke-opacity:1" />
      <path
         style="fill:url(#linearGradient3070);fill-opacity:1;fill-rule:evenodd;stroke:none;stroke-width:1px;stroke-linecap:butt;stroke-linejoin:miter;stroke-opacity:1"
         d="M 349.54072,104.05741 L 335.61422,105.91428 L 335.61422,188.54484 L 354.18288,188.54484 L 349.54072,104.05741 z "
         id="path2895"
         sodipodi:nodetypes="ccccc" />
      <path
         sodipodi:nodetypes="ccsscc"
         id="path1874"
         d="M 314.28098,77.132847 L 330.97205,111.48488 C 330.97205,111.48488 346.75542,117.94246 354.18288,112.41331 C 358.65553,109.08378 360.05626,101.36524 362.78799,94.145377 C 366.61631,84.027249 370.89468,74.347547 370.89468,74.347547 C 370.89468,74.347547 337.27711,62.818393 314.28098,77.132847 z "
         style="fill:#d38d5f;fill-rule:evenodd;stroke:#000000;stroke-width:1px;stroke-linecap:butt;stroke-linejoin:miter;stroke-opacity:1" />
      <path
         style="fill:#ff6600;fill-rule:evenodd;stroke:#000000;stroke-width:0.92797154px;stroke-linecap:butt;stroke-linejoin:miter;stroke-opacity:1"
         d="M 321.87978,214.56867 C 321.87978,214.56867 323.55366,204.8847 326.28604,197.0037 C 329.01843,189.12271 334.49295,181.36108 334.49295,181.36108 C 334.49295,181.36108 349.1754,176.03252 356.05175,182.24629 C 365.05086,190.37827 373.71599,214.18293 373.71599,214.18293 C 373.71599,214.18293 348.84099,224.94808 321.87978,214.56867 z "
         id="path1876"
         sodipodi:nodetypes="czcscc" />
      <path
         sodipodi:nodetypes="czcscc"
         id="path2875"
         d="M 321.87978,214.56867 C 321.87978,214.56867 323.55366,204.8847 326.28604,197.0037 C 329.01843,189.12271 334.49295,181.36108 334.49295,181.36108 C 334.49295,181.36108 349.1754,176.03252 356.05175,182.24629 C 365.05086,190.37827 373.71599,214.18293 373.71599,214.18293 C 373.71599,214.18293 348.84099,224.94808 321.87978,214.56867 z "
         style="fill:url(#linearGradient3072);fill-opacity:1;fill-rule:evenodd;stroke:none;stroke-width:0.92797154px;stroke-linecap:butt;stroke-linejoin:miter;stroke-opacity:1" />
      <path
         style="fill:#ff5555;fill-rule:evenodd;stroke:#000000;stroke-width:1px;stroke-linecap:butt;stroke-linejoin:miter;stroke-opacity:1"
         d="M 313.33182,220.96651 C 312.51231,224.77673 311.44897,237.74434 311.99729,240.73244 C 317.33148,269.80141 382.94089,260.16108 388.777,239.03492 C 388.94028,238.44386 389.45618,239.48426 389.68624,236.86641 C 389.84791,235.02679 389.86841,229.45721 389.52621,228.55918 C 393.28086,203.73049 332.01981,198.6312 313.33182,220.96651 z "
         id="path1882"
         sodipodi:nodetypes="cssscc" />
      <path
         sodipodi:nodetypes="cssscc"
         id="path2905"
         d="M 313.33182,220.96651 C 312.51231,224.77673 311.44897,237.74434 311.99729,240.73244 C 317.33148,269.80141 382.94089,260.16108 388.777,239.03492 C 388.94028,238.44386 389.45618,239.48426 389.68624,236.86641 C 389.84791,235.02679 389.86841,229.45721 389.52621,228.55918 C 393.28086,203.73049 332.01981,198.6312 313.33182,220.96651 z "
         style="fill:url(#linearGradient3074);fill-opacity:1;fill-rule:evenodd;stroke:none;stroke-width:1px;stroke-linecap:butt;stroke-linejoin:miter;stroke-opacity:1" />
      <path
         sodipodi:nodetypes="cssscsc"
         id="path1880"
         d="M 312.50575,235.9578 C 311.13649,242.32404 312.2607,246.3605 314.79306,250.09154 C 318.1592,255.05103 324.14013,258.83732 331.29327,260.6724 C 345.75589,264.38268 364.60872,263.05562 377.38764,257.21214 C 385.38266,253.55622 389.50359,247.32991 389.52621,242.39397 C 394.32502,227.68545 371.61561,220.22336 349.11429,221.44668 C 334.64328,222.23341 319.43226,227.60372 312.50575,235.9578 z "
         style="fill:#ff5555;fill-rule:evenodd;stroke:#000000;stroke-width:1px;stroke-linecap:butt;stroke-linejoin:miter;stroke-opacity:1" />
      <path
         sodipodi:nodetypes="czcccsc"
         id="path1886"
         d="M 393.88216,201.20185 C 393.88216,201.20185 464.35011,164.00871 486.76708,150.56023 C 506.34959,138.81222 531.8131,146.20179 528.43122,161.49843 C 526.09884,169.63689 525.41777,171.53558 512.15249,180.13003 C 496.15862,187.8922 414.61309,228.26763 414.61309,228.26763 C 414.61309,228.26763 391.62626,222.6198 391.86867,217.05447 C 392.11109,211.48915 393.88216,201.20185 393.88216,201.20185 z "
         style="fill:#aa4400;fill-rule:evenodd;stroke:#000000;stroke-width:1px;stroke-linecap:butt;stroke-linejoin:miter;stroke-opacity:1" />
      <path
         sodipodi:nodetypes="ccsssssssccc"
         id="path1884"
         d="M 385.74962,222.89687 L 402.39856,214.56432 C 402.39856,214.56432 392.52155,204.97125 400.91881,205.38234 C 408.53739,205.75532 408.60097,207.50108 412.30901,208.59569 C 415.50176,209.53818 417.60706,208.02455 421.03008,207.11351 C 422.88665,206.61938 423.94693,207.05215 424.43299,207.90863 C 425.28592,209.41158 423.37933,212.38445 422.88695,213.61254 C 421.02635,218.25322 433.09556,223.85207 421.03008,221.96844 C 420.01277,221.80962 418.49074,223.72027 417.63801,222.68251 C 412.78068,216.77128 409.31421,219.12028 409.31421,219.12028 L 390.39178,226.61061 L 385.74962,222.89687 z "
         style="fill:#ff6600;fill-rule:evenodd;stroke:#000000;stroke-width:1px;stroke-linecap:butt;stroke-linejoin:miter;stroke-opacity:1" />
      <path
         style="fill:#aa4400;fill-rule:evenodd;stroke:#000000;stroke-width:0.8752678px;stroke-linecap:butt;stroke-linejoin:miter;stroke-opacity:1"
         d="M 307.8215,211.31321 C 307.8215,211.31321 244.35207,182.27715 224.08257,171.62909 C 219.31858,169.12645 212.07406,166.95421 207.18668,166.44136 C 195.91775,165.25887 178.68438,180.01211 194.3596,191.67386 C 205.35514,199.8541 222.49656,205.94108 238.24708,212.95892 C 265.48231,225.09392 291.00339,235.9473 291.00339,235.9473 C 291.00339,235.9473 310.84,229.8988 310.35643,225.05272 C 309.87287,220.20665 307.8215,211.31321 307.8215,211.31321 z "
         id="path1888"
         sodipodi:nodetypes="czssscsc" />
      <path
         style="fill:#ff6600;fill-rule:evenodd;stroke:#000000;stroke-width:0.8752678px;stroke-linecap:butt;stroke-linejoin:miter;stroke-opacity:1"
         d="M 316.50708,229.33597 L 301.26608,223.529 C 301.26608,223.529 309.04598,214.32825 301.75935,215.41309 C 295.14841,216.39735 295.24451,217.92155 292.10616,219.19493 C 289.40394,220.29133 287.43674,219.15689 284.37283,218.66078 C 282.71102,218.3917 281.82404,218.86 281.47455,219.64719 C 280.86127,221.02853 282.78186,223.44962 283.31782,224.47534 C 284.84856,227.40491 280.89857,229.94975 282.66387,230.61592 C 283.6082,230.97229 283.13187,232.2333 285.66233,231.58365 C 296.02572,228.92304 295.6312,228.09131 295.6312,228.09131 L 312.78155,232.96871 L 316.50708,229.33597 z "
         id="path1890"
         sodipodi:nodetypes="ccsssssssccc" />
      <path
         transform="matrix(0.804067,-0.358345,0.329693,0.736302,116.8323,74.68896)"
         d="M 107.99753 259.35922 A 2.6220553 1.5057347 0 1 1  102.75342,259.35922 A 2.6220553 1.5057347 0 1 1  107.99753 259.35922 z"
         sodipodi:ry="1.5057347"
         sodipodi:rx="2.6220553"
         sodipodi:cy="259.35922"
         sodipodi:cx="105.37547"
         id="path1896"
         style="fill:#faf40c;fill-opacity:1;fill-rule:nonzero;stroke:url(#linearGradient3076);stroke-width:0.69999999;stroke-linecap:butt;stroke-linejoin:miter;stroke-miterlimit:4;stroke-dasharray:none;stroke-opacity:1"
         sodipodi:type="arc" />
      <path
         sodipodi:type="arc"
         style="fill:#faf40c;fill-opacity:1;fill-rule:nonzero;stroke:url(#linearGradient3078);stroke-width:0.69999999;stroke-linecap:butt;stroke-linejoin:miter;stroke-miterlimit:4;stroke-dasharray:none;stroke-opacity:1"
         id="path2837"
         sodipodi:cx="105.37547"
         sodipodi:cy="259.35922"
         sodipodi:rx="2.6220553"
         sodipodi:ry="1.5057347"
         d="M 107.99753 259.35922 A 2.6220553 1.5057347 0 1 1  102.75342,259.35922 A 2.6220553 1.5057347 0 1 1  107.99753 259.35922 z"
         transform="matrix(0.804067,-0.358345,0.329693,0.736302,128.8431,66.61899)" />
      <path
         sodipodi:type="arc"
         style="fill:#faf40c;fill-opacity:1;fill-rule:nonzero;stroke:url(#linearGradient3080);stroke-width:0.69999999;stroke-linecap:butt;stroke-linejoin:miter;stroke-miterlimit:4;stroke-dasharray:none;stroke-opacity:1"
         id="path2841"
         sodipodi:cx="105.37547"
         sodipodi:cy="259.35922"
         sodipodi:rx="2.6220553"
         sodipodi:ry="1.5057347"
         d="M 107.99753 259.35922 A 2.6220553 1.5057347 0 1 1  102.75342,259.35922 A 2.6220553 1.5057347 0 1 1  107.99753 259.35922 z"
         transform="matrix(0.898865,0.449436,0.412528,-0.825051,202.8703,378.8908)" />
      <path
         transform="matrix(0.898865,0.449436,0.412528,-0.825051,216.5089,387.4925)"
         d="M 107.99753 259.35922 A 2.6220553 1.5057347 0 1 1  102.75342,259.35922 A 2.6220553 1.5057347 0 1 1  107.99753 259.35922 z"
         sodipodi:ry="1.5057347"
         sodipodi:rx="2.6220553"
         sodipodi:cy="259.35922"
         sodipodi:cx="105.37547"
         id="path2845"
         style="fill:#faf40c;fill-opacity:1;fill-rule:nonzero;stroke:url(#linearGradient3082);stroke-width:0.69999999;stroke-linecap:butt;stroke-linejoin:miter;stroke-miterlimit:4;stroke-dasharray:none;stroke-opacity:1"
         sodipodi:type="arc" />
      <path
         transform="matrix(0.811399,7.240866e-2,-7.466308e-2,0.662961,279.9821,90.61305)"
         d="M 107.99753 259.35922 A 2.6220553 1.5057347 0 1 1  102.75342,259.35922 A 2.6220553 1.5057347 0 1 1  107.99753 259.35922 z"
         sodipodi:ry="1.5057347"
         sodipodi:rx="2.6220553"
         sodipodi:cy="259.35922"
         sodipodi:cx="105.37547"
         id="path2849"
         style="fill:#faf40c;fill-opacity:0.96078431;fill-rule:nonzero;stroke:url(#linearGradient3084);stroke-width:0.69999999;stroke-linecap:butt;stroke-linejoin:miter;stroke-miterlimit:4;stroke-dasharray:none;stroke-opacity:1"
         sodipodi:type="arc" />
      <path
         sodipodi:type="arc"
         style="fill:#faf40c;fill-opacity:0.96078431;fill-rule:nonzero;stroke:url(#linearGradient3086);stroke-width:0.69999999;stroke-linecap:butt;stroke-linejoin:miter;stroke-miterlimit:4;stroke-dasharray:none;stroke-opacity:1"
         id="path2851"
         sodipodi:cx="105.37547"
         sodipodi:cy="259.35922"
         sodipodi:rx="2.6220553"
         sodipodi:ry="1.5057347"
         d="M 107.99753 259.35922 A 2.6220553 1.5057347 0 1 1  102.75342,259.35922 A 2.6220553 1.5057347 0 1 1  107.99753 259.35922 z"
         transform="matrix(0.825845,8.062435e-2,-7.768929e-2,0.722062,295.9065,74.66483)" />
      <path
         transform="matrix(0.731907,8.166333e-2,-6.885235e-2,0.731367,296.259,77.1858)"
         d="M 107.99753 259.35922 A 2.6220553 1.5057347 0 1 1  102.75342,259.35922 A 2.6220553 1.5057347 0 1 1  107.99753 259.35922 z"
         sodipodi:ry="1.5057347"
         sodipodi:rx="2.6220553"
         sodipodi:cy="259.35922"
         sodipodi:cx="105.37547"
         id="path2857"
         style="fill:#faf40c;fill-opacity:0.96078431;fill-rule:nonzero;stroke:url(#linearGradient3088);stroke-width:0.69999999;stroke-linecap:butt;stroke-linejoin:miter;stroke-miterlimit:4;stroke-dasharray:none;stroke-opacity:1"
         sodipodi:type="arc" />
      <path
         sodipodi:type="arc"
         style="fill:#faf40c;fill-opacity:1;fill-rule:nonzero;stroke:url(#linearGradient3090);stroke-width:0.69999999;stroke-linecap:butt;stroke-linejoin:miter;stroke-miterlimit:4;stroke-dasharray:none;stroke-opacity:1"
         id="path2861"
         sodipodi:cx="105.37547"
         sodipodi:cy="259.35922"
         sodipodi:rx="2.6220553"
         sodipodi:ry="1.5057347"
         d="M 107.99753 259.35922 A 2.6220553 1.5057347 0 1 1  102.75342,259.35922 A 2.6220553 1.5057347 0 1 1  107.99753 259.35922 z"
         transform="matrix(0.590521,-0.280442,0.242133,0.576232,161.3978,102.3628)" />
      <path
         sodipodi:type="arc"
         style="fill:#faf40c;fill-opacity:1;fill-rule:nonzero;stroke:url(#linearGradient3092);stroke-width:0.69999999;stroke-linecap:butt;stroke-linejoin:miter;stroke-miterlimit:4;stroke-dasharray:none;stroke-opacity:1"
         id="path2865"
         sodipodi:cx="105.37547"
         sodipodi:cy="259.35922"
         sodipodi:rx="2.6220553"
         sodipodi:ry="1.5057347"
         d="M 107.99753 259.35922 A 2.6220553 1.5057347 0 1 1  102.75342,259.35922 A 2.6220553 1.5057347 0 1 1  107.99753 259.35922 z"
         transform="matrix(0.717246,0.317019,0.324717,-0.573049,259.3343,328.7102)" />
      <path
         style="fill:url(#linearGradient3094);fill-opacity:1;fill-rule:evenodd;stroke:none;stroke-width:1px;stroke-linecap:butt;stroke-linejoin:miter;stroke-opacity:1"
         d="M 314.28098,77.132847 L 330.97205,111.48488 C 330.97205,111.48488 346.75542,117.94246 354.18288,112.41331 C 358.65553,109.08378 360.05626,101.36524 362.78799,94.145377 C 366.61631,84.027249 370.89468,74.347547 370.89468,74.347547 C 370.89468,74.347547 337.27711,62.818393 314.28098,77.132847 z "
         id="path2885"
         sodipodi:nodetypes="ccsscc" />
      <path
         transform="matrix(0.999692,-2.483489e-2,2.483489e-2,0.999692,122.3467,-3.701057)"
         d="M 241.87942 253.48665 A 19.922783 7.0150642 0 1 1  202.03385,253.48665 A 19.922783 7.0150642 0 1 1  241.87942 253.48665 z"
         sodipodi:ry="7.0150642"
         sodipodi:rx="19.922783"
         sodipodi:cy="253.48665"
         sodipodi:cx="221.95663"
         id="path2915"
         style="fill:url(#radialGradient3096);fill-opacity:1;fill-rule:nonzero;stroke:none;stroke-width:0.69999999;stroke-linecap:butt;stroke-linejoin:miter;stroke-miterlimit:4;stroke-dasharray:none;stroke-opacity:1"
         sodipodi:type="arc" />
      <path
         sodipodi:type="arc"
         style="fill:url(#radialGradient3098);fill-opacity:1;fill-rule:nonzero;stroke:none;stroke-width:0.69999999;stroke-linecap:butt;stroke-linejoin:miter;stroke-miterlimit:4;stroke-dasharray:none;stroke-opacity:1"
         id="path2925"
         sodipodi:cx="221.95663"
         sodipodi:cy="253.48665"
         sodipodi:rx="19.922783"
         sodipodi:ry="7.0150642"
         d="M 241.87942 253.48665 A 19.922783 7.0150642 0 1 1  202.03385,253.48665 A 19.922783 7.0150642 0 1 1  241.87942 253.48665 z"
         transform="matrix(0.999692,-2.483489e-2,2.483489e-2,0.999692,122.3467,-3.701057)" />
    </g>
  </g>
</svg>
